<svg width="68" height="95" fill="none" xmlns="http://www.w3.org/2000/svg"><g clip-path="url(#a)"><path d="M64.97 0H2.33C1.04 0 0 1.028 0 2.3v90.407c0 1.272 1.041 2.3 2.33 2.3h62.64c1.288 0 2.33-1.028 2.33-2.3V2.3A2.323 2.323 0 0 0 64.97 0Z" fill="url(#b)"/><path d="M60.858 4.098H6.434c-1.25 0-2.268 1.005-2.268 2.247v74.747c0 1.242 1.018 2.24 2.268 2.24h54.424c1.257 0 2.268-1.006 2.268-2.24V6.345a2.254 2.254 0 0 0-2.268-2.247Z" fill="#fff"/><path d="M44.774 39.636H22.526a1.832 1.832 0 0 1-1.844-1.82V15.842c0-1.005.825-1.82 1.844-1.82h22.248c1.018 0 1.843.815 1.843 1.82v21.966a1.838 1.838 0 0 1-1.843 1.828Z" fill="url(#c)"/><path d="M33.65 92.547c1.891 0 3.425-1.513 3.425-3.381 0-1.868-1.534-3.382-3.425-3.382-1.892 0-3.425 1.514-3.425 3.382s1.533 3.382 3.425 3.382Z" fill="#fff"/><path d="M53.036 51.015h-38.78c-.98 0-1.782-.792-1.782-1.76 0-.967.802-1.759 1.782-1.759h38.772c.98 0 1.782.792 1.782 1.76a1.77 1.77 0 0 1-1.774 1.759Z" fill="url(#d)"/><path opacity=".6" d="M46.47 60.764H13.609a1.12 1.12 0 0 1-1.126-1.112v-.122c0-.617.509-1.112 1.126-1.112h32.863a1.12 1.12 0 0 1 1.126 1.112v.122c.008.61-.501 1.112-1.126 1.112Z" fill="url(#e)"/><path opacity=".3" d="M40.215 66.956H13.5a1.024 1.024 0 0 1-1.026-1.013v-.335c0-.556.463-1.013 1.026-1.013h26.707c.563 0 1.026.457 1.026 1.013v.335c0 .556-.463 1.013-1.018 1.013Z" fill="url(#f)"/><path opacity=".6" d="M43.578 72.691H13.562c-.594 0-1.08-.48-1.08-1.066v-.213c0-.587.486-1.066 1.08-1.066h30.016c.594 0 1.08.48 1.08 1.066v.213c0 .579-.486 1.066-1.08 1.066Z" fill="url(#g)"/><path d="M33.717 26.12a4.034 4.034 0 0 0 4.033-4.035 4.034 4.034 0 1 0-8.067 0 4.029 4.029 0 0 0 4.034 4.036Zm0 2.018c-2.692 0-8.067 1.351-8.067 4.036v1.013c0 .557.456 1.013 1.013 1.013h14.125c.556 0 1.012-.456 1.012-1.013v-1.013c-.017-2.676-5.392-4.035-8.083-4.035Z" fill="#fff"/></g><defs><linearGradient id="b" x1="4.077" y1="45.03" x2="67.344" y2="50.454" gradientUnits="userSpaceOnUse"><stop stop-color="#6CBCFC"/><stop offset="1" stop-color="#458DFC"/></linearGradient><linearGradient id="c" x1="18.671" y1="19.292" x2="48.465" y2="34.669" gradientUnits="userSpaceOnUse"><stop stop-color="#B0F4FF"/><stop offset=".086" stop-color="#A3F0FE"/><stop offset=".297" stop-color="#8AE7FD"/><stop offset=".516" stop-color="#77E1FD"/><stop offset=".745" stop-color="#6DDDFC"/><stop offset="1" stop-color="#69DCFC"/></linearGradient><linearGradient id="d" x1="54.814" y1="49.257" x2="12.481" y2="49.257" gradientUnits="userSpaceOnUse"><stop stop-color="#6CBCFC"/><stop offset="1" stop-color="#458DFC"/></linearGradient><linearGradient id="e" x1="47.603" y1="59.588" x2="12.481" y2="59.588" gradientUnits="userSpaceOnUse"><stop stop-color="#6CBCFC"/><stop offset="1" stop-color="#458DFC"/></linearGradient><linearGradient id="f" x1="41.234" y1="65.78" x2="12.481" y2="65.78" gradientUnits="userSpaceOnUse"><stop stop-color="#6CBCFC"/><stop offset="1" stop-color="#458DFC"/></linearGradient><linearGradient id="g" x1="44.657" y1="71.512" x2="12.481" y2="71.512" gradientUnits="userSpaceOnUse"><stop stop-color="#6CBCFC"/><stop offset="1" stop-color="#458DFC"/></linearGradient><clipPath id="a"><path fill="#fff" d="M0 0h67.292v95H0z"/></clipPath></defs></svg>