<svg width="80" height="72" fill="none" xmlns="http://www.w3.org/2000/svg"><g clip-path="url(#a)"><path d="M66.475 14.01H13.258v57.117h53.218V14.011Z" fill="url(#b)"/><path d="M13.038 14.01c.064 0 .129.028.22.056V71.1c-4.12.321-7.597-.716-10.359-3.377C.945 65.833 0 63.613 0 61.1V34.408c0-3.395-.01-6.79-.01-10.185 0-4.101 2.212-7.083 6.277-9.102 2.092-1.028 4.413-1.184 6.771-1.11Z" fill="url(#c)"/><path d="M57.18 14.002h4.983v57.107H17.571v-57.09h5.294v-.595c0-2.047.01-4.102-.01-6.148-.018-1.431.368-2.68 1.487-3.652.79-.679 1.698-1.027 2.725-1.027 3.184-.01 6.359-.01 9.543-.01 5.349 0 10.707.01 16.057 0 1.403 0 2.569.46 3.486 1.524.734.853 1.01 1.853 1.01 2.972-.01 2.157 0 4.313 0 6.469-.01.12 0 .257.018.45Zm-28.571 0h8.157c4.734 0 9.478 0 14.212.009.377 0 .46-.12.46-.477-.02-1.606 0-3.212 0-4.817 0-.129-.02-.257-.038-.395H28.61v5.68Z" fill="#fff"/><mask id="d" style="mask-type:alpha" maskUnits="userSpaceOnUse" x="17" y="2" width="46" height="70"><path d="M57.18 14.002h4.983v57.107H17.571v-57.09h5.294v-.595c0-2.047.01-4.102-.01-6.148-.018-1.431.368-2.68 1.487-3.652.79-.679 1.698-1.027 2.725-1.027 3.184-.01 6.359-.01 9.543-.01 5.349 0 10.707.01 16.057 0 1.403 0 2.569.46 3.486 1.524.734.853 1.01 1.853 1.01 2.972-.01 2.157 0 4.313 0 6.469-.01.12 0 .257.018.45Zm-28.571 0h8.157c4.734 0 9.478 0 14.212.009.377 0 .46-.12.46-.477-.02-1.606 0-3.212 0-4.817 0-.129-.02-.257-.038-.395H28.61v5.68Z" fill="#F7F9FC"/></mask><g mask="url(#d)"><path d="M58.096 0H21v14.02h37.096V0Z" fill="url(#e)"/></g><path d="M80 24.076c0-3.78-2.064-6.597-5.735-8.643-2.257-1.257-4.817-1.496-7.44-1.44-.404.009-.35.22-.35.44v19.81c0 11.606 0 23.204-.009 34.81v2.065c1.652.055 3.22.065 4.762-.302 5.212-1.23 8.763-5.111 8.763-9.69.018-12.34.009-24.7.009-37.05Z" fill="url(#f)"/><path d="M44.216 46.785V54.034c0 .761-.385 1.165-1.138 1.165-2.073.01-4.147.01-6.22 0-.689 0-1.074-.431-1.074-1.156v-7.257h-7.166c-.89 0-1.257-.359-1.257-1.249V39.62c0-.899.358-1.257 1.248-1.257h7.166V31.15c0-.844.376-1.21 1.22-1.21h5.918c.927 0 1.285.348 1.285 1.293.009 2.257 0 4.505 0 6.762v.376h.394c2.276 0 4.551 0 6.827.01.835 0 1.193.367 1.193 1.202v5.945c0 .909-.35 1.257-1.24 1.257-2.266 0-4.532 0-6.789.01-.092-.01-.202-.01-.367-.01Z" fill="url(#g)"/></g><defs><linearGradient id="b" x1="13.26" y1="42.566" x2="66.473" y2="42.566" gradientUnits="userSpaceOnUse"><stop stop-color="#B0F4FF"/><stop offset="1" stop-color="#69DCFC"/></linearGradient><linearGradient id="c" x1="0" y1="42.575" x2="13.26" y2="42.575" gradientUnits="userSpaceOnUse"><stop stop-color="#6CBCFC"/><stop offset="1" stop-color="#458DFC"/></linearGradient><linearGradient id="e" x1="20.996" y1="7.008" x2="58.094" y2="7.008" gradientUnits="userSpaceOnUse"><stop stop-color="#6CBCFC"/><stop offset="1" stop-color="#458DFC"/></linearGradient><linearGradient id="f" x1="66.469" y1="42.569" x2="80.001" y2="42.569" gradientUnits="userSpaceOnUse"><stop stop-color="#6CBCFC"/><stop offset="1" stop-color="#458DFC"/></linearGradient><linearGradient id="g" x1="27.367" y1="42.578" x2="52.63" y2="42.578" gradientUnits="userSpaceOnUse"><stop stop-color="#6CBCFC"/><stop offset="1" stop-color="#458DFC"/></linearGradient><clipPath id="a"><path fill="#fff" d="M0 0h80v71.155H0z"/></clipPath></defs></svg>