<svg width="160" height="41" fill="none" xmlns="http://www.w3.org/2000/svg"><path d="M58.856 15.456h-5.568v-2.544h14.28v2.544h-5.592V30h-3.12V15.456Zm15.265 2.136c.464 0 .864.064 1.2.192l-.024 2.736a4.171 4.171 0 0 0-1.584-.312c-1.024 0-1.808.296-2.352.888-.528.592-.792 1.376-.792 2.352V30h-2.976v-8.688c0-1.28-.064-2.424-.192-3.432h2.808l.24 2.136c.304-.784.784-1.384 1.44-1.8.656-.416 1.4-.624 2.232-.624Zm14.228.288V30h-2.952v-1.944a3.971 3.971 0 0 1-1.584 1.584c-.688.368-1.472.552-2.352.552-1.056 0-1.992-.256-2.808-.768-.816-.512-1.448-1.24-1.896-2.184-.448-.944-.672-2.04-.672-3.288 0-1.248.224-2.352.672-3.312.464-.976 1.104-1.728 1.92-2.256.816-.544 1.744-.816 2.784-.816.88 0 1.664.192 2.352.576a3.817 3.817 0 0 1 1.584 1.56V17.88h2.952Zm-6.072 9.96c.992 0 1.76-.344 2.304-1.032.544-.688.816-1.656.816-2.904 0-1.28-.272-2.264-.816-2.952-.544-.688-1.32-1.032-2.328-1.032-.992 0-1.768.36-2.328 1.08-.544.704-.816 1.688-.816 2.952 0 1.248.272 2.208.816 2.88.56.672 1.344 1.008 2.352 1.008Zm15.075-13.128c-1.296 0-1.944.712-1.944 2.136v1.032h2.712v2.256h-2.712V30h-3v-9.864h-2.304V17.88h2.304v-1.176c0-1.44.36-2.544 1.08-3.312.736-.784 1.784-1.176 3.144-1.176.752 0 1.384.096 1.896.288v2.376a4.936 4.936 0 0 0-1.176-.168Zm14.552 3.168V30h-2.952v-1.944a3.971 3.971 0 0 1-1.584 1.584c-.688.368-1.472.552-2.352.552-1.056 0-1.992-.256-2.808-.768-.816-.512-1.448-1.24-1.896-2.184-.448-.944-.672-2.04-.672-3.288 0-1.248.224-2.352.672-3.312.464-.976 1.104-1.728 1.92-2.256.816-.544 1.744-.816 2.784-.816.88 0 1.664.192 2.352.576a3.817 3.817 0 0 1 1.584 1.56V17.88h2.952Zm-6.072 9.96c.992 0 1.76-.344 2.304-1.032.544-.688.816-1.656.816-2.904 0-1.28-.272-2.264-.816-2.952-.544-.688-1.32-1.032-2.328-1.032-.992 0-1.768.36-2.328 1.08-.544.704-.816 1.688-.816 2.952 0 1.248.272 2.208.816 2.88.56.672 1.344 1.008 2.352 1.008Zm9.339-15.504h2.976V30h-2.976V12.336Zm17.97 5.544v11.736c0 1.888-.52 3.32-1.56 4.296-1.04.976-2.568 1.464-4.584 1.464-1.872 0-3.52-.392-4.944-1.176l.48-2.28c1.472.768 2.936 1.152 4.392 1.152 2.16 0 3.24-1.072 3.24-3.216v-2.4c-.368.656-.904 1.192-1.608 1.608-.704.4-1.496.6-2.376.6-1.056 0-2-.248-2.832-.744-.816-.512-1.456-1.224-1.92-2.136-.448-.928-.672-1.984-.672-3.168 0-1.184.224-2.232.672-3.144.464-.928 1.104-1.64 1.92-2.136.832-.512 1.776-.768 2.832-.768.896 0 1.688.192 2.376.576.704.368 1.24.888 1.608 1.56V17.88h2.976Zm-6.168 9.432c.992 0 1.768-.328 2.328-.984.576-.656.864-1.56.864-2.712 0-1.152-.28-2.056-.84-2.712-.56-.656-1.344-.984-2.352-.984-.992 0-1.776.328-2.352.984-.56.656-.84 1.56-.84 2.712 0 1.152.28 2.056.84 2.712.576.656 1.36.984 2.352.984Zm21.001-9.432V30h-2.952v-1.944a3.971 3.971 0 0 1-1.584 1.584c-.688.368-1.472.552-2.352.552-1.056 0-1.992-.256-2.808-.768-.816-.512-1.448-1.24-1.896-2.184-.448-.944-.672-2.04-.672-3.288 0-1.248.224-2.352.672-3.312.464-.976 1.104-1.728 1.92-2.256.816-.544 1.744-.816 2.784-.816.88 0 1.664.192 2.352.576a3.817 3.817 0 0 1 1.584 1.56V17.88h2.952Zm-6.072 9.96c.992 0 1.76-.344 2.304-1.032.544-.688.816-1.656.816-2.904 0-1.28-.272-2.264-.816-2.952-.544-.688-1.32-1.032-2.328-1.032-.992 0-1.768.36-2.328 1.08-.544.704-.816 1.688-.816 2.952 0 1.248.272 2.208.816 2.88.56.672 1.344 1.008 2.352 1.008Zm15.867-10.248c.464 0 .864.064 1.2.192l-.024 2.736a4.171 4.171 0 0 0-1.584-.312c-1.024 0-1.808.296-2.352.888-.528.592-.792 1.376-.792 2.352V30h-2.976v-8.688c0-1.28-.064-2.424-.192-3.432h2.808l.24 2.136c.304-.784.784-1.384 1.44-1.8.656-.416 1.4-.624 2.232-.624Z" fill="#233348"/><circle cx="20.5" cy="20.5" r="20.5" fill="#458FF6"/><path d="M19.344 15.244h-6.032v-2.756h15.47v2.756h-6.058V31h-3.38V15.244Z" fill="#fff"/></svg>