<svg width="92" height="90" fill="none" xmlns="http://www.w3.org/2000/svg"><g clip-path="url(#a)"><path d="m56.216 43.315-9.078 8.665L8.803 88.566a5.176 5.176 0 0 1-3.588 1.444 5.176 5.176 0 0 1-3.853-1.71c-2.023-2.233-1.758-5.726.57-7.63l45.206-36.843 4.98-4.056 4.098 3.544Z" fill="url(#b)"/><path d="m46.741 52.42-8.935 8.522-.824-8.757 4.89-3.984 4.87 4.22Z" fill="#3A81D6" fill-opacity=".8"/><path d="M91.978 29.908c0 16.52-13.296 29.918-29.683 29.918-10.329 0-19.427-5.316-24.743-13.387a29.93 29.93 0 0 1-4.94-16.531C32.611 13.387 45.907 0 62.294 0c7.4 0 14.16 2.724 19.355 7.231a29.95 29.95 0 0 1 10.328 22.677Z" fill="url(#c)"/><path d="M62.295 53.21c12.772 0 23.126-10.433 23.126-23.302 0-12.87-10.354-23.302-23.126-23.302-12.773 0-23.127 10.433-23.127 23.302s10.354 23.301 23.127 23.301Z" fill="#fff"/><path opacity=".06" d="M91.978 29.908c0 16.52-13.296 29.918-29.683 29.918-10.329 0-19.427-5.316-24.743-13.387C71.027 43.694 79.85 15.118 81.66 7.231a29.976 29.976 0 0 1 10.318 22.677Z" fill="#1A6FB5" fill-opacity=".5"/><path d="M62.295 29.959c2.683 0 4.859-2.192 4.859-4.896 0-2.704-2.176-4.896-4.86-4.896-2.683 0-4.859 2.192-4.859 4.896 0 2.704 2.166 4.896 4.86 4.896Zm0 2.448c-3.243 0-9.719 1.639-9.719 4.896v1.229c0 .676.55 1.229 1.22 1.229h17.017c.671 0 1.22-.553 1.22-1.23v-1.228c-.02-3.247-6.496-4.896-9.738-4.896Z" fill="url(#d)"/></g><defs><linearGradient id="b" x1="5.675" y1="84.326" x2="53.924" y2="40.792" gradientUnits="userSpaceOnUse"><stop stop-color="#67C3F3"/><stop offset="1" stop-color="#5A98F2"/></linearGradient><linearGradient id="c" x1="50.017" y1="2.113" x2="72.782" y2="52.905" gradientUnits="userSpaceOnUse"><stop stop-color="#67C3F3"/><stop offset="1" stop-color="#5A98F2"/></linearGradient><linearGradient id="d" x1="55.269" y1="28.395" x2="72.92" y2="36.939" gradientUnits="userSpaceOnUse"><stop stop-color="#B0F4FF"/><stop offset=".071" stop-color="#A6F1FF"/><stop offset=".294" stop-color="#8BE8FD"/><stop offset=".521" stop-color="#78E1FD"/><stop offset=".754" stop-color="#6DDDFC"/><stop offset="1" stop-color="#69DCFC"/></linearGradient><clipPath id="a"><path fill="#fff" d="M0 0h91.978v90H0z"/></clipPath></defs></svg>